<svg width="200" height="200" viewBox="0 0 120 120" xmlns="http://www.w3.org/2000/svg">
  <defs>
    <linearGradient id="bladeGradDark" x1="0%" y1="0%" x2="100%" y2="100%">
      <stop offset="0%" style="stop-color:#29b6f6;stop-opacity:1" />
      <stop offset="100%" style="stop-color:#0288d1;stop-opacity:1" />
    </linearGradient>

    <linearGradient id="bladeGradLight" x1="0%" y1="100%" x2="100%" y2="0%">
      <stop offset="0%" style="stop-color:#4fc3f7;stop-opacity:1" />
      <stop offset="100%" style="stop-color:#81d4fa;stop-opacity:1" />
    </linearGradient>
  </defs>

  <g transform="translate(60, 60)">
    <path d="M0 -15 Q 15 -55, 55 -45 L 35 0 Z" fill="url(#bladeGradLight)" transform="rotate(0)" />
    <path d="M0 -15 Q 15 -55, 55 -45 L 35 0 Z" fill="url(#bladeGradDark)" transform="rotate(60)" />
    <path d="M0 -15 Q 15 -55, 55 -45 L 35 0 Z" fill="url(#bladeGradLight)" transform="rotate(120)" />
    <path d="M0 -15 Q 15 -55, 55 -45 L 35 0 Z" fill="url(#bladeGradDark)" transform="rotate(180)" />
    <path d="M0 -15 Q 15 -55, 55 -45 L 35 0 Z" fill="url(#bladeGradLight)" transform="rotate(240)" />
    <path d="M0 -15 Q 15 -55, 55 -45 L 35 0 Z" fill="url(#bladeGradDark)" transform="rotate(300)" />
  </g>
</svg>
