<svg width="600" height="200" viewBox="0 0 600 200" xmlns="http://www.w3.org/2000/svg">
  <defs>
    <linearGradient id="bladeGradDark" x1="0%" y1="0%" x2="100%" y2="100%">
      <stop offset="0%" style="stop-color:#29b6f6;stop-opacity:1" />
      <stop offset="100%" style="stop-color:#0288d1;stop-opacity:1" />
    </linearGradient>

    <linearGradient id="bladeGradLight" x1="0%" y1="100%" x2="100%" y2="0%">
      <stop offset="0%" style="stop-color:#4fc3f7;stop-opacity:1" />
      <stop offset="100%" style="stop-color:#81d4fa;stop-opacity:1" />
    </linearGradient>
    
    <linearGradient id="textFlowGrad" x1="0%" y1="0%" x2="0%" y2="100%">
      <stop offset="0%" style="stop-color:#039be5;stop-opacity:1" />
      <stop offset="100%" style="stop-color:#0277bd;stop-opacity:1" />
    </linearGradient>

    <linearGradient id="textImgGrad" x1="0%" y1="0%" x2="0%" y2="100%">
      <stop offset="0%" style="stop-color:#26c6da;stop-opacity:1" />
      <stop offset="100%" style="stop-color:#00bcd4;stop-opacity:1" />
    </linearGradient>
  </defs>

  <g transform="translate(100, 100)">
    <path d="M0 -15 Q 15 -55, 55 -45 L 35 0 Z" fill="url(#bladeGradLight)" transform="rotate(0)" />
    <path d="M0 -15 Q 15 -55, 55 -45 L 35 0 Z" fill="url(#bladeGradDark)" transform="rotate(60)" />
    <path d="M0 -15 Q 15 -55, 55 -45 L 35 0 Z" fill="url(#bladeGradLight)" transform="rotate(120)" />
    <path d="M0 -15 Q 15 -55, 55 -45 L 35 0 Z" fill="url(#bladeGradDark)" transform="rotate(180)" />
    <path d="M0 -15 Q 15 -55, 55 -45 L 35 0 Z" fill="url(#bladeGradLight)" transform="rotate(240)" />
    <path d="M0 -15 Q 15 -55, 55 -45 L 35 0 Z" fill="url(#bladeGradDark)" transform="rotate(300)" />
  </g>

  <g transform="translate(180, 130)">
    <text font-family="'Segoe UI', Roboto, Helvetica, Arial, sans-serif" font-weight="700" font-size="90" letter-spacing="-2">
      <tspan fill="url(#textFlowGrad)">Flow</tspan><tspan fill="url(#textImgGrad)">Img</tspan>
    </text>
  </g>
</svg>
